<svg width="24" height="20" viewBox="0 0 24 20" fill="none" xmlns="http://www.w3.org/2000/svg">
<g filter="url(#filter0_d_213_2)">
<path d="M2 1.6C2 1.17565 2.16857 0.768688 2.46863 0.468629C2.76869 0.168571 3.17565 0 3.6 0H19.6C20.0243 0 20.4313 0.168571 20.7314 0.468629C21.0314 0.768688 21.2 1.17565 21.2 1.6C21.2 2.02435 21.0314 2.43131 20.7314 2.73137C20.4313 3.03143 20.0243 3.2 19.6 3.2H3.6C3.17565 3.2 2.76869 3.03143 2.46863 2.73137C2.16857 2.43131 2 2.02435 2 1.6Z" fill="white"/>
<path d="M5.19993 7.99987C5.19993 7.57552 5.36851 7.16856 5.66856 6.8685C5.96862 6.56844 6.37559 6.39987 6.79993 6.39987H16.3999C16.8243 6.39987 17.2312 6.56844 17.5313 6.8685C17.8314 7.16856 17.9999 7.57552 17.9999 7.99987C17.9999 8.42422 17.8314 8.83118 17.5313 9.13124C17.2312 9.4313 16.8243 9.59987 16.3999 9.59987H6.79993C6.37559 9.59987 5.96862 9.4313 5.66856 9.13124C5.36851 8.83118 5.19993 8.42422 5.19993 7.99987Z" fill="white"/>
<path d="M9.99993 12.7999C9.57559 12.7999 9.16862 12.9684 8.86856 13.2685C8.56851 13.5686 8.39993 13.9755 8.39993 14.3999C8.39993 14.8242 8.56851 15.2312 8.86856 15.5312C9.16862 15.8313 9.57559 15.9999 9.99993 15.9999H13.1999C13.6243 15.9999 14.0312 15.8313 14.3313 15.5312C14.6314 15.2312 14.7999 14.8242 14.7999 14.3999C14.7999 13.9755 14.6314 13.5686 14.3313 13.2685C14.0312 12.9684 13.6243 12.7999 13.1999 12.7999H9.99993Z" fill="white"/>
</g>
<defs>
<filter id="filter0_d_213_2" x="-2" y="0" width="27.2" height="23.9999" filterUnits="userSpaceOnUse" color-interpolation-filters="sRGB">
<feFlood flood-opacity="0" result="BackgroundImageFix"/>
<feColorMatrix in="SourceAlpha" type="matrix" values="0 0 0 0 0 0 0 0 0 0 0 0 0 0 0 0 0 0 127 0" result="hardAlpha"/>
<feOffset dy="4"/>
<feGaussianBlur stdDeviation="2"/>
<feComposite in2="hardAlpha" operator="out"/>
<feColorMatrix type="matrix" values="0 0 0 0 0 0 0 0 0 0 0 0 0 0 0 0 0 0 0.25 0"/>
<feBlend mode="normal" in2="BackgroundImageFix" result="effect1_dropShadow_213_2"/>
<feBlend mode="normal" in="SourceGraphic" in2="effect1_dropShadow_213_2" result="shape"/>
</filter>
</defs>
</svg>
