<svg width="32" height="24" viewBox="0 0 32 24" fill="none" xmlns="http://www.w3.org/2000/svg">
<path d="M0.25 1.89474C0.25 1.39222 0.449624 0.910287 0.804956 0.554955C1.16029 0.199623 1.64222 0 2.14474 0H29.9342C30.4367 0 30.9187 0.199623 31.274 0.554955C31.6293 0.910287 31.8289 1.39222 31.8289 1.89474C31.8289 2.39725 31.6293 2.87919 31.274 3.23452C30.9187 3.58985 30.4367 3.78947 29.9342 3.78947H2.14474C1.64222 3.78947 1.16029 3.58985 0.804956 3.23452C0.449624 2.87919 0.25 2.39725 0.25 1.89474V1.89474ZM5.30263 12C5.30263 11.4975 5.50225 11.0156 5.85759 10.6602C6.21292 10.3049 6.69485 10.1053 7.19737 10.1053H24.8816C25.3841 10.1053 25.866 10.3049 26.2214 10.6602C26.5767 11.0156 26.7763 11.4975 26.7763 12C26.7763 12.5025 26.5767 12.9844 26.2214 13.3398C25.866 13.6951 25.3841 13.8947 24.8816 13.8947H7.19737C6.69485 13.8947 6.21292 13.6951 5.85759 13.3398C5.50225 12.9844 5.30263 12.5025 5.30263 12V12ZM10.3553 22.1053C10.3553 21.6027 10.5549 21.1208 10.9102 20.7655C11.2656 20.4101 11.7475 20.2105 12.25 20.2105H19.8289C20.3315 20.2105 20.8134 20.4101 21.1687 20.7655C21.5241 21.1208 21.7237 21.6027 21.7237 22.1053C21.7237 22.6078 21.5241 23.0897 21.1687 23.445C20.8134 23.8004 20.3315 24 19.8289 24H12.25C11.7475 24 11.2656 23.8004 10.9102 23.445C10.5549 23.0897 10.3553 22.6078 10.3553 22.1053V22.1053Z" fill="white"/>
</svg>
