<svg width="18" height="18" viewBox="0 0 18 18" fill="none" xmlns="http://www.w3.org/2000/svg">
<path d="M17.4676 7.36182H8.99414V10.8446H13.8348C13.6261 11.9703 12.9928 12.9225 12.0383 13.5604C11.2315 14.0998 10.202 14.4188 8.99179 14.4188C6.64886 14.4188 4.6671 12.8357 3.95883 10.7085C3.78059 10.1691 3.67739 9.59218 3.67739 8.99883C3.67739 8.40547 3.78059 7.82853 3.95883 7.28912C4.66945 5.1643 6.65121 3.58124 8.99414 3.58124C10.3145 3.58124 11.4989 4.03622 12.4323 4.92743L15.0121 2.34528C13.4525 0.891205 11.4192 0 8.99414 0C5.47857 0 2.43674 2.01694 0.956873 4.95792C0.347101 6.17277 0 7.5471 0 9.00117C0 10.4552 0.347101 11.8272 0.956873 13.0421C2.43674 15.9831 5.47857 18 8.99414 18C11.4238 18 13.4595 17.1932 14.9465 15.8189C16.6468 14.2522 17.6294 11.9445 17.6294 9.20287C17.6294 8.56495 17.5732 7.95283 17.4676 7.36182Z" fill="white"/>
</svg>
