<svg id="f5c8951d-dab1-4136-a65b-8223e0e13ffe" data-name="Layer 1" xmlns="http://www.w3.org/2000/svg" viewBox="0 0 210.52 48"><defs><style>.ee0ac4af-7498-4e1f-84a4-2cd9d94487f6{fill:#00b1e9;fill-rule:evenodd;}.a60c70a2-a693-4553-a7e8-c96bd718ee70{fill:#fe00b2;}.b494d4d3-6e74-476f-99e3-f742e1caa765{fill:#fcfcfc;}</style></defs><path class="ee0ac4af-7498-4e1f-84a4-2cd9d94487f6" d="M13.3,40.12H43.66a5.8,5.8,0,0,0,5.8-5.8V27.61a3.87,3.87,0,1,1,7.73,0v6.71A13.54,13.54,0,0,1,43.66,47.86H13.3A13.54,13.54,0,0,1-.23,34.32V17.79A13.54,13.54,0,0,1,13.3,4.25H27.48a3.87,3.87,0,1,1,0,7.74H13.3a5.8,5.8,0,0,0-5.8,5.8V34.32A5.8,5.8,0,0,0,13.3,40.12Z" transform="translate(0.23 0.14)"/><path class="a60c70a2-a693-4553-a7e8-c96bd718ee70" d="M54.84,7.17a3.7,3.7,0,0,1,0,6.34l-11.3,6.78A3.69,3.69,0,0,1,38,17.12V3.56A3.69,3.69,0,0,1,43.54.39Z" transform="translate(0.23 0.14)"/><path class="b494d4d3-6e74-476f-99e3-f742e1caa765" d="M83.52,38.74a11.05,11.05,0,0,1-3-.61A9.1,9.1,0,0,1,78,36.69a6.23,6.23,0,0,1-1.69-2.17l4.06-1.73a3.58,3.58,0,0,0,.77.84,4.79,4.79,0,0,0,1.26.73,4.34,4.34,0,0,0,1.63.3,5,5,0,0,0,1.42-.2,2.54,2.54,0,0,0,1.11-.65A1.55,1.55,0,0,0,87,32.69a1.35,1.35,0,0,0-.51-1.13A3.22,3.22,0,0,0,85.24,31l-1.46-.39a14.61,14.61,0,0,1-3.49-1.16,7.64,7.64,0,0,1-2.58-2,4.83,4.83,0,0,1-1-3,5.57,5.57,0,0,1,1-3.37,6.79,6.79,0,0,1,2.7-2.19,8.55,8.55,0,0,1,3.6-.76,9.34,9.34,0,0,1,4.3,1,7.66,7.66,0,0,1,3.11,2.74L87.68,24a3.14,3.14,0,0,0-.77-.87,4.06,4.06,0,0,0-1.12-.67,4,4,0,0,0-1.32-.32,5.57,5.57,0,0,0-1.62.16,2.54,2.54,0,0,0-1.18.67,1.8,1.8,0,0,0-.43,1.26,1.24,1.24,0,0,0,.59,1.13,5,5,0,0,0,1.42.55c.56.13,1.1.27,1.61.43a19.41,19.41,0,0,1,3.25,1.4,7.59,7.59,0,0,1,2.47,2,4.41,4.41,0,0,1,.88,2.88A5.25,5.25,0,0,1,90.32,36a7.23,7.23,0,0,1-3,2.16A8.23,8.23,0,0,1,83.52,38.74Z" transform="translate(0.23 0.14)"/><path class="b494d4d3-6e74-476f-99e3-f742e1caa765" d="M105.58,23.48h-3.82v14.9H97V23.48H94v-4.8H97V12.49h4.81v6.19h3.82Z" transform="translate(0.23 0.14)"/><path class="b494d4d3-6e74-476f-99e3-f742e1caa765" d="M121.13,23.56A5.68,5.68,0,0,0,120,23a4.21,4.21,0,0,0-1.36-.22,4.17,4.17,0,0,0-2.49.75,4.78,4.78,0,0,0-1.57,2,6.71,6.71,0,0,0-.56,2.76V38.38h-4.84V18.68H114V21a7.59,7.59,0,0,1,2.35-2.07,6.32,6.32,0,0,1,3.11-.77c.45,0,.88,0,1.28,0a5.28,5.28,0,0,1,1.21.22Z" transform="translate(0.23 0.14)"/><path class="b494d4d3-6e74-476f-99e3-f742e1caa765" d="M124.85,18.68h4.81v19.7h-4.81Zm2.42-2.94a2.49,2.49,0,0,1-1.77-.69,2.5,2.5,0,0,1,0-3.53,2.47,2.47,0,0,1,1.77-.71,2.46,2.46,0,0,1,2.49,2.47,2.38,2.38,0,0,1-.73,1.77A2.44,2.44,0,0,1,127.27,15.74Z" transform="translate(0.23 0.14)"/><path class="b494d4d3-6e74-476f-99e3-f742e1caa765" d="M135.47,38.38V18.68h4.81v2a8,8,0,0,1,1.84-1.56,4.07,4.07,0,0,1,2.22-.61,7.9,7.9,0,0,1,3.67.85,8.32,8.32,0,0,1,2.87,2.36,8.36,8.36,0,0,1,2.88-2.36,8,8,0,0,1,3.67-.85A8.3,8.3,0,0,1,162,19.76a9,9,0,0,1,3.17,3.39,9.43,9.43,0,0,1,1.16,4.67V38.38h-4.8V27.82a5,5,0,0,0-.52-2.27,4.13,4.13,0,0,0-1.44-1.63,3.63,3.63,0,0,0-2.1-.61,3.84,3.84,0,0,0-2.15.61,4.26,4.26,0,0,0-1.46,1.63,4.84,4.84,0,0,0-.53,2.27V38.38h-4.81V27.82a4.62,4.62,0,0,0-.55-2.27,4.31,4.31,0,0,0-1.48-1.63,3.73,3.73,0,0,0-2.11-.61,3.61,3.61,0,0,0-2.07.63,4.55,4.55,0,0,0-1.46,1.67,5,5,0,0,0-.53,2.29V38.38Z" transform="translate(0.23 0.14)"/><path class="b494d4d3-6e74-476f-99e3-f742e1caa765" d="M172,38.89a2.41,2.41,0,0,1-1.76-.71,2.44,2.44,0,0,1-.71-1.77,2.47,2.47,0,0,1,4.22-1.73,2.34,2.34,0,0,1,.73,1.73A2.46,2.46,0,0,1,172,38.89Z" transform="translate(0.23 0.14)"/><path class="b494d4d3-6e74-476f-99e3-f742e1caa765" d="M179.19,18.68H184v19.7h-4.81Zm2.43-2.94a2.5,2.5,0,0,1-1.78-.69,2.5,2.5,0,0,1,0-3.53,2.48,2.48,0,0,1,1.78-.71,2.39,2.39,0,0,1,1.75.71,2.5,2.5,0,0,1,0,3.53A2.41,2.41,0,0,1,181.62,15.74Z" transform="translate(0.23 0.14)"/><path class="b494d4d3-6e74-476f-99e3-f742e1caa765" d="M205.48,8.82h4.81V38.38h-4.81V35.92a7.56,7.56,0,0,1-2.38,2.15,6.58,6.58,0,0,1-3.33.82,10.12,10.12,0,0,1-4-.8,10.85,10.85,0,0,1-3.31-2.23,10.67,10.67,0,0,1-2.23-3.31,10.38,10.38,0,0,1,0-8,10.35,10.35,0,0,1,2.23-3.29A10.56,10.56,0,0,1,195.75,19a10,10,0,0,1,4-.81,6.58,6.58,0,0,1,3.33.83,7.22,7.22,0,0,1,2.38,2.15Zm-5.65,25.44a4.78,4.78,0,0,0,2.71-.77,5.36,5.36,0,0,0,1.86-2.06,6.41,6.41,0,0,0,.67-2.9,6.32,6.32,0,0,0-.67-2.9,5.28,5.28,0,0,0-1.88-2.09,4.82,4.82,0,0,0-2.69-.77,5.05,5.05,0,0,0-2.76.79,5.89,5.89,0,0,0-2,2.07,6,6,0,0,0,0,5.8,5.78,5.78,0,0,0,2,2.06A5.13,5.13,0,0,0,199.83,34.26Z" transform="translate(0.23 0.14)"/></svg>