<svg width="24" height="18" viewBox="0 0 24 18" fill="none" xmlns="http://www.w3.org/2000/svg">
<path d="M5.01317 0.983142C5.12046 1.09031 5.20557 1.21757 5.26364 1.35765C5.32171 1.49774 5.3516 1.64789 5.3516 1.79953C5.3516 1.95118 5.32171 2.10133 5.26364 2.24141C5.20557 2.3815 5.12046 2.50876 5.01317 2.61593C3.28165 4.34774 2.30892 6.6964 2.30892 9.14534C2.30892 11.5943 3.28165 13.9429 5.01317 15.6748C5.12031 15.782 5.20528 15.9092 5.26323 16.0493C5.32118 16.1893 5.35098 16.3394 5.35093 16.491C5.35087 16.6425 5.32097 16.7926 5.26292 16.9326C5.20486 17.0726 5.11981 17.1998 5.0126 17.307C4.90539 17.4141 4.77812 17.4991 4.63807 17.557C4.49803 17.615 4.34794 17.6448 4.19637 17.6447C4.04481 17.6447 3.89474 17.6148 3.75473 17.5567C3.61472 17.4987 3.48752 17.4136 3.38039 17.3064C-1.1268 12.7992 -1.1268 5.49032 3.38039 0.983142C3.48755 0.875855 3.61482 0.790743 3.7549 0.732673C3.89498 0.674603 4.04514 0.644714 4.19678 0.644714C4.34842 0.644714 4.49858 0.674603 4.63866 0.732673C4.77874 0.790743 4.906 0.875855 5.01317 0.983142ZM19.7036 0.983142C24.2108 5.49148 24.2108 12.7992 19.7036 17.3064C19.486 17.5166 19.1945 17.6329 18.892 17.6303C18.5894 17.6276 18.3 17.5063 18.0861 17.2923C17.8721 17.0784 17.7508 16.789 17.7481 16.4864C17.7455 16.1839 17.8618 15.8924 18.072 15.6748C19.8035 13.9429 20.7762 11.5943 20.7762 9.14534C20.7762 6.6964 19.8035 4.34774 18.072 2.61593C17.8555 2.39956 17.7338 2.10604 17.7337 1.79994C17.7336 1.49384 17.8551 1.20024 18.0714 0.983718C18.2878 0.767197 18.5813 0.645497 18.8874 0.645388C19.1935 0.64528 19.4871 0.766774 19.7036 0.983142ZM8.43683 4.29948C8.65316 4.51588 8.77468 4.80932 8.77468 5.1153C8.77468 5.42128 8.65316 5.71473 8.43683 5.93112C8.01675 6.35115 7.68352 6.84982 7.45618 7.39865C7.22883 7.94748 7.11181 8.53571 7.11181 9.12976C7.11181 9.72381 7.22883 10.312 7.45618 10.8609C7.68352 11.4097 8.01675 11.9084 8.43683 12.3284C8.54704 12.4349 8.63495 12.5622 8.69542 12.703C8.7559 12.8437 8.78773 12.9952 8.78906 13.1484C8.79039 13.3016 8.7612 13.4535 8.70318 13.5953C8.64516 13.7372 8.55948 13.866 8.45113 13.9743C8.34279 14.0827 8.21395 14.1684 8.07214 14.2264C7.93033 14.2844 7.77838 14.3136 7.62517 14.3123C7.47195 14.3109 7.32053 14.2791 7.17975 14.2186C7.03897 14.1582 6.91164 14.0702 6.8052 13.96C5.52416 12.679 4.80448 10.9415 4.80448 9.12976C4.80448 7.31807 5.52416 5.58057 6.8052 4.29948C7.02159 4.08316 7.31504 3.96164 7.62101 3.96164C7.92699 3.96164 8.22044 4.08316 8.43683 4.29948ZM16.4669 4.29948C17.7479 5.58057 18.4676 7.31807 18.4676 9.12976C18.4676 10.9415 17.7479 12.679 16.4669 13.96C16.3598 14.0672 16.2326 14.1523 16.0926 14.2104C15.9526 14.2684 15.8025 14.2983 15.6509 14.2984C15.4994 14.2984 15.3493 14.2686 15.2092 14.2107C15.0692 14.1527 14.9419 14.0677 14.8347 13.9606C14.7275 13.8535 14.6424 13.7263 14.5844 13.5863C14.5263 13.4463 14.4964 13.2962 14.4964 13.1446C14.4963 12.9931 14.5261 12.843 14.5841 12.7029C14.642 12.5629 14.727 12.4356 14.8341 12.3284C15.2542 11.9084 15.5874 11.4097 15.8148 10.8609C16.0421 10.312 16.1591 9.72381 16.1591 9.12976C16.1591 8.53571 16.0421 7.94748 15.8148 7.39865C15.5874 6.84982 15.2542 6.35115 14.8341 5.93112C14.6178 5.7146 14.4963 5.42099 14.4964 5.11489C14.4965 4.80879 14.6182 4.51528 14.8347 4.29891C15.0512 4.08254 15.3448 3.96105 15.6509 3.96115C15.957 3.96126 16.2505 4.08296 16.4669 4.29948ZM11.6355 7.49582C11.8628 7.49582 12.0879 7.54059 12.2978 7.62758C12.5078 7.71456 12.6987 7.84205 12.8594 8.00278C13.0201 8.16351 13.1476 8.35432 13.2346 8.56432C13.3216 8.77431 13.3663 8.99939 13.3663 9.22669C13.3663 9.45399 13.3216 9.67907 13.2346 9.88906C13.1476 10.0991 13.0201 10.2899 12.8594 10.4506C12.6987 10.6113 12.5078 10.7388 12.2978 10.8258C12.0879 10.9128 11.8628 10.9576 11.6355 10.9576C11.1764 10.9576 10.7362 10.7752 10.4116 10.4506C10.087 10.126 9.90461 9.68574 9.90461 9.22669C9.90461 8.76764 10.087 8.32738 10.4116 8.00278C10.7362 7.67818 11.1764 7.49582 11.6355 7.49582Z" fill="#FCFCFC"/>
</svg>
