<svg width="20" height="19" viewBox="0 0 20 19" fill="none" xmlns="http://www.w3.org/2000/svg">
<path d="M17 18.5863H3C2.73478 18.5863 2.48043 18.4809 2.29289 18.2934C2.10536 18.1059 2 17.8515 2 17.5863V9.58629H0L9.292 0.293287C9.38487 0.20031 9.49516 0.126551 9.61656 0.0762267C9.73796 0.0259024 9.86808 0 9.9995 0C10.1309 0 10.261 0.0259024 10.3824 0.0762267C10.5038 0.126551 10.6141 0.20031 10.707 0.293287L20 9.58629H18V17.5863C18 17.8515 17.8946 18.1059 17.7071 18.2934C17.5196 18.4809 17.2652 18.5863 17 18.5863ZM8 11.5863H12V16.5863H16V8.41429L10 2.41429L4 8.41429V16.5863H8V11.5863Z" fill="white"/>
</svg>
