<svg width="20" height="23" viewBox="0 0 20 23" fill="none" xmlns="http://www.w3.org/2000/svg">
<path d="M14.5 8.39792L5.5 3.20792" stroke="white" stroke-width="2" stroke-linecap="round" stroke-linejoin="round"/>
<path d="M19 14.9979V6.99792C18.9996 6.64719 18.9071 6.30273 18.7315 5.99908C18.556 5.69543 18.3037 5.44328 18 5.26792L11 1.26792C10.696 1.09238 10.3511 0.999969 10 0.999969C9.64893 0.999969 9.30404 1.09238 9 1.26792L2 5.26792C1.69626 5.44328 1.44398 5.69543 1.26846 5.99908C1.09294 6.30273 1.00036 6.64719 1 6.99792V14.9979C1.00036 15.3486 1.09294 15.6931 1.26846 15.9968C1.44398 16.3004 1.69626 16.5526 2 16.7279L9 20.7279C9.30404 20.9035 9.64893 20.9959 10 20.9959C10.3511 20.9959 10.696 20.9035 11 20.7279L18 16.7279C18.3037 16.5526 18.556 16.3004 18.7315 15.9968C18.9071 15.6931 18.9996 15.3486 19 14.9979Z" stroke="white" stroke-width="2" stroke-linecap="round" stroke-linejoin="round"/>
<path d="M1.27002 5.95792L10 11.0079L18.73 5.95792" stroke="white" stroke-width="2" stroke-linecap="round" stroke-linejoin="round"/>
<path d="M10 21.0779V10.9979" stroke="white" stroke-width="2" stroke-linecap="round" stroke-linejoin="round"/>
</svg>
