<svg width="20" height="28" viewBox="0 0 20 28" fill="none" xmlns="http://www.w3.org/2000/svg">
<path fill-rule="evenodd" clip-rule="evenodd" d="M6 26C6 26.5304 5.78929 27.0391 5.41421 27.4142C5.03914 27.7893 4.53043 28 4 28H2C1.46957 28 0.96086 27.7893 0.585787 27.4142C0.210714 27.0391 0 26.5304 0 26V2C0 1.46957 0.210714 0.96086 0.585787 0.585787C0.96086 0.210714 1.46957 0 2 0H4C4.53043 0 5.03914 0.210714 5.41421 0.585787C5.78929 0.96086 6 1.46957 6 2V26ZM20 26C20 26.5304 19.7893 27.0391 19.4142 27.4142C19.0391 27.7893 18.5304 28 18 28H16C15.4696 28 14.9609 27.7893 14.5858 27.4142C14.2107 27.0391 14 26.5304 14 26V2C14 1.46957 14.2107 0.96086 14.5858 0.585787C14.9609 0.210714 15.4696 0 16 0H18C18.5304 0 19.0391 0.210714 19.4142 0.585787C19.7893 0.96086 20 1.46957 20 2V26Z" fill="white"/>
</svg>
